<svg width="80" height="80" viewBox="0 0 80 80" fill="none" xmlns="http://www.w3.org/2000/svg">
    <path d="M29.6786 46.1247C28.1877 43.6114 27.6655 40.6402 28.2102 37.7692C28.7549 34.8981 30.329 32.3247 32.6369 30.532C34.9447 28.7394 37.8276 27.8509 40.7441 28.0334C43.6607 28.216 46.4103 29.4569 48.4767 31.5232C50.5431 33.5896 51.784 36.3392 51.9666 39.2558C52.1491 42.1724 51.2606 45.0552 49.468 47.3631C47.6754 49.671 45.1019 51.245 42.2309 51.7897C39.3598 52.3345 36.3887 51.8123 33.8753 50.3214L33.8753 50.3213L29.7308 51.5055C29.5593 51.5545 29.3778 51.5567 29.2052 51.512C29.0326 51.4672 28.875 51.3772 28.7489 51.2511C28.6228 51.125 28.5328 50.9674 28.488 50.7948C28.4433 50.6221 28.4455 50.4407 28.4945 50.2692L29.6787 46.1246L29.6786 46.1247Z"
          stroke="CurrentColor" stroke-linecap="round" stroke-linejoin="round"/>
    <path d="M43.0142 47C41.6986 47.0019 40.3956 46.7441 39.1797 46.2415C37.9639 45.7389 36.8592 45.0013 35.9289 44.0711C34.9987 43.1408 34.2611 42.0361 33.7585 40.8203C33.2559 39.6044 32.9981 38.3014 33 36.9858C33.003 36.0598 33.3731 35.1727 34.0293 34.5192C34.6854 33.8658 35.574 33.4992 36.5 33.5V33.5C36.6519 33.5 36.8011 33.5402 36.9325 33.6164C37.0638 33.6926 37.1727 33.8022 37.2481 33.9341L38.7094 36.4915C38.7976 36.6458 38.843 36.8207 38.8411 36.9983C38.8393 37.1759 38.7901 37.3498 38.6987 37.5022L37.5251 39.4582C38.1289 40.7982 39.2018 41.8711 40.5418 42.4749V42.4749L42.4978 41.3013C42.6502 41.2099 42.8241 41.1608 43.0017 41.1589C43.1793 41.157 43.3542 41.2024 43.5085 41.2906L46.0659 42.7519C46.1978 42.8273 46.3074 42.9362 46.3836 43.0675C46.4598 43.1989 46.5 43.3481 46.5 43.5V43.5C46.4974 44.425 46.1297 45.3115 45.477 45.9669C44.8242 46.6223 43.9392 46.9936 43.0142 47V47Z"
          stroke="CurrentColor" stroke-linecap="round" stroke-linejoin="round"/>
    <circle opacity="0.2" cx="40" cy="40" r="39.5" stroke="CurrentColor"/>
</svg>
