<svg width="80" height="80" viewBox="0 0 80 80" fill="none" xmlns="http://www.w3.org/2000/svg">
    <path d="M34.9998 40.859L46.2395 50.7499C46.3695 50.8644 46.5271 50.9431 46.6967 50.9783C46.8663 51.0136 47.0421 51.0041 47.207 50.951C47.3719 50.8978 47.5201 50.8027 47.6372 50.675C47.7543 50.5474 47.8362 50.3915 47.8748 50.2226L52.5766 29.706C52.6172 29.5287 52.6087 29.3435 52.5519 29.1706C52.4951 28.9977 52.3922 28.8436 52.2543 28.7249C52.1164 28.6061 51.9487 28.5273 51.7693 28.4968C51.5899 28.4663 51.4056 28.4854 51.2362 28.5519L28.1666 37.615C27.9655 37.694 27.7954 37.8359 27.6818 38.0196C27.5682 38.2033 27.5171 38.4189 27.5361 38.6341C27.5552 38.8492 27.6435 39.0525 27.7877 39.2133C27.9319 39.3741 28.1243 39.4839 28.3361 39.5263L34.9998 40.859Z"
          stroke="CurrentColor" stroke-linecap="round" stroke-linejoin="round"/>
    <path d="M35 40.859L52.014 28.571" stroke="CurrentColor" stroke-linecap="round" stroke-linejoin="round"/>
    <path d="M40.6134 45.7989L36.7071 49.7052C36.5673 49.845 36.3891 49.9403 36.1951 49.9789C36.0011 50.0174 35.8 49.9976 35.6173 49.922C35.4346 49.8463 35.2784 49.7181 35.1685 49.5536C35.0587 49.3892 35 49.1959 35 48.9981V40.8591"
          stroke="CurrentColor" stroke-linecap="round" stroke-linejoin="round"/>
    <circle opacity="0.2" cx="40" cy="40" r="39.5" stroke="CurrentColor"/>
</svg>
