<svg width="179" height="52" viewBox="0 0 179 52" fill="none" xmlns="http://www.w3.org/2000/svg">
<g clip-path="url(#clip0_2989_355)">
<path d="M146.236 15.4367C146.238 15.1735 146.317 14.9166 146.465 14.6985C146.612 14.4803 146.82 14.3106 147.064 14.2106C147.307 14.1106 147.575 14.0849 147.833 14.1366C148.091 14.1884 148.328 14.3153 148.514 14.5014C148.7 14.6876 148.827 14.9246 148.879 15.1826C148.931 15.4407 148.905 15.7083 148.805 15.9518C148.705 16.1953 148.535 16.4038 148.317 16.551C148.099 16.6983 147.842 16.7777 147.579 16.7794C147.401 16.7864 147.223 16.7564 147.057 16.6914C146.891 16.6264 146.74 16.5278 146.614 16.4017C146.488 16.2756 146.389 16.1247 146.324 15.9587C146.259 15.7926 146.229 15.6149 146.236 15.4367ZM148.615 15.4367C148.592 15.1779 148.473 14.9372 148.281 14.7618C148.089 14.5865 147.839 14.4893 147.579 14.4893C147.319 14.4893 147.069 14.5865 146.877 14.7618C146.685 14.9372 146.566 15.1779 146.543 15.4367C146.566 15.6955 146.685 15.9362 146.877 16.1115C147.069 16.2869 147.319 16.3841 147.579 16.3841C147.839 16.3841 148.089 16.2869 148.281 16.1115C148.473 15.9362 148.592 15.6955 148.615 15.4367ZM146.87 15.4367C146.864 15.3408 146.879 15.2447 146.913 15.1548C146.946 15.0648 146.999 14.9831 147.067 14.915C147.134 14.8468 147.216 14.7938 147.306 14.7595C147.395 14.7251 147.491 14.7101 147.587 14.7156C147.736 14.6976 147.885 14.7375 148.005 14.827C148.125 14.9166 148.205 15.0489 148.23 15.1963L147.902 15.2751C147.893 15.2025 147.856 15.1363 147.798 15.0907C147.741 15.0451 147.668 15.0235 147.596 15.0306C147.359 15.0306 147.239 15.1839 147.239 15.445C147.239 15.706 147.368 15.8594 147.596 15.8594C147.669 15.8685 147.743 15.8502 147.803 15.8082C147.863 15.7661 147.906 15.7031 147.923 15.6315L148.23 15.7102C148.199 15.8551 148.115 15.9833 147.995 16.0698C147.874 16.1564 147.726 16.1951 147.579 16.1785C147.482 16.1873 147.383 16.1741 147.292 16.14C147.2 16.1059 147.117 16.0517 147.049 15.9813C146.981 15.9109 146.93 15.8262 146.899 15.7334C146.868 15.6406 146.858 15.542 146.87 15.445V15.4367Z" fill="black"/>
<path d="M73.313 22.693V21.3586C73.313 16.3857 75.7994 13.8288 81.1494 13.8081C86.2674 13.8288 88.8409 15.963 88.9403 20.0242C88.9403 20.0884 88.9152 20.1499 88.8702 20.1957C88.8252 20.2414 88.7641 20.2677 88.7 20.2687H84.8294C84.7696 20.2678 84.7123 20.2441 84.6693 20.2026C84.6262 20.1611 84.6005 20.1047 84.5973 20.045C84.4689 18.1843 83.3044 17.4798 81.1494 17.4798C78.8163 17.4798 77.6726 18.5034 77.6726 21.3379V22.7469C77.6726 25.6478 78.8163 26.6299 81.1494 26.6299C83.3292 26.6299 84.5145 25.9254 84.6015 24.0481C84.6025 23.9869 84.6273 23.9285 84.6706 23.8852C84.7139 23.8419 84.7723 23.8171 84.8335 23.8161H88.7C88.7641 23.8172 88.8252 23.8434 88.8702 23.8891C88.9152 23.9349 88.9403 23.9964 88.9403 24.0606C88.845 28.1425 86.2923 30.2767 81.1494 30.2767C75.7911 30.2518 73.313 27.7198 73.313 22.693Z" fill="black"/>
<path d="M100.805 29.8375L100.034 27.695C100.018 27.6494 99.9885 27.6099 99.9492 27.5817C99.9099 27.5536 99.8629 27.5381 99.8146 27.5375H93.988C93.9396 27.5375 93.8923 27.5527 93.8529 27.581C93.8135 27.6092 93.784 27.6491 93.7684 27.695L93.0059 29.8375C92.9891 29.8823 92.9591 29.9209 92.9199 29.9483C92.8807 29.9757 92.8341 29.9905 92.7863 29.9908H89.1187C89.0809 29.9913 89.0435 29.9825 89.0098 29.9652C88.9761 29.9478 88.9472 29.9226 88.9255 29.8915C88.9038 29.8604 88.8901 29.8245 88.8855 29.7869C88.8809 29.7494 88.8856 29.7112 88.8991 29.6758L94.6801 14.3013C94.6964 14.2562 94.7262 14.2172 94.7656 14.1897C94.8049 14.1623 94.8518 14.1477 94.8997 14.148H98.9112C98.9589 14.1488 99.0053 14.1639 99.0444 14.1912C99.0835 14.2185 99.1136 14.2568 99.1308 14.3013L104.908 29.6758C104.921 29.7112 104.926 29.7494 104.921 29.7869C104.917 29.8245 104.903 29.8604 104.881 29.8915C104.86 29.9226 104.831 29.9478 104.797 29.9652C104.763 29.9825 104.726 29.9913 104.688 29.9908H101.033C100.984 29.9928 100.935 29.9791 100.894 29.9515C100.853 29.9239 100.822 29.884 100.805 29.8375ZM95.3556 24.1601H98.4512C98.4891 24.1602 98.5265 24.1513 98.5602 24.134C98.5939 24.1167 98.6229 24.0916 98.6448 24.0607C98.6668 24.0298 98.681 23.9941 98.6862 23.9566C98.6915 23.9191 98.6876 23.8808 98.675 23.8451L97.1251 19.556C97.1084 19.5106 97.0782 19.4714 97.0386 19.4438C96.9989 19.4161 96.9518 19.4013 96.9034 19.4013C96.8551 19.4013 96.8079 19.4161 96.7682 19.4438C96.7286 19.4714 96.6984 19.5106 96.6817 19.556L95.1359 23.8451C95.1234 23.8805 95.1195 23.9184 95.1246 23.9556C95.1296 23.9927 95.1434 24.0282 95.1649 24.059C95.1864 24.0898 95.2149 24.115 95.248 24.1326C95.2812 24.1502 95.3181 24.1596 95.3556 24.1601Z" fill="black"/>
<path d="M117.153 14.1521H120.784C120.846 14.1521 120.906 14.177 120.951 14.2213C120.995 14.2656 121.02 14.3257 121.02 14.3883V29.7214C121.019 29.7834 120.993 29.8424 120.949 29.8858C120.905 29.9292 120.846 29.9535 120.784 29.9535H115.952C115.911 29.9539 115.871 29.9438 115.835 29.9242C115.8 29.9046 115.77 29.8761 115.749 29.8416L110.854 21.6736C110.828 21.6292 110.788 21.5946 110.74 21.5753C110.692 21.5559 110.639 21.5528 110.589 21.5665C110.539 21.5801 110.495 21.6097 110.464 21.6508C110.432 21.6919 110.415 21.7421 110.415 21.7938V29.738C110.415 29.7996 110.391 29.8586 110.347 29.9021C110.304 29.9456 110.245 29.9701 110.183 29.9701H106.528C106.466 29.9701 106.407 29.9456 106.364 29.9021C106.32 29.8586 106.296 29.7996 106.296 29.738V14.4049C106.295 14.3741 106.301 14.3434 106.312 14.3148C106.324 14.2862 106.341 14.2601 106.362 14.2381C106.384 14.2161 106.41 14.1987 106.438 14.1867C106.467 14.1748 106.497 14.1687 106.528 14.1687H111.165C111.206 14.169 111.245 14.1799 111.28 14.2003C111.315 14.2206 111.344 14.2497 111.364 14.2847L116.482 22.7842C116.509 22.8287 116.549 22.8632 116.597 22.8826C116.645 22.9019 116.698 22.905 116.747 22.8914C116.797 22.8778 116.841 22.8481 116.873 22.8071C116.904 22.766 116.921 22.7158 116.921 22.6641V14.3883C116.921 14.3575 116.926 14.3269 116.938 14.2982C116.949 14.2696 116.966 14.2435 116.988 14.2215C117.009 14.1995 117.035 14.1821 117.064 14.1702C117.092 14.1582 117.123 14.1521 117.153 14.1521Z" fill="black"/>
<path d="M73.313 42.3857V41.0513C73.313 36.0784 75.7994 33.5215 81.1494 33.5007C86.2674 33.5007 88.8409 35.6557 88.9403 39.7169C88.9403 39.7484 88.9341 39.7797 88.922 39.8088C88.91 39.838 88.8923 39.8645 88.8699 39.8868C88.8476 39.9091 88.8211 39.9268 88.792 39.9389C88.7628 39.951 88.7315 39.9572 88.7 39.9572H84.8294C84.7696 39.9563 84.7123 39.9326 84.6693 39.8911C84.6262 39.8495 84.6005 39.7932 84.5973 39.7334C84.4689 37.8769 83.3044 37.1724 81.1494 37.1724C78.8163 37.1724 77.6726 38.196 77.6726 41.0305V42.4354C77.6726 45.3362 78.8163 46.3225 81.1494 46.3225C83.3292 46.3225 84.5145 45.6139 84.6015 43.7408C84.6025 43.6796 84.6273 43.6211 84.6706 43.5779C84.7139 43.5346 84.7723 43.5098 84.8335 43.5087H88.7C88.7634 43.5098 88.8239 43.5354 88.8688 43.5803C88.9136 43.6251 88.9393 43.6856 88.9403 43.7491C88.845 47.8351 86.2923 49.9652 81.1494 49.9901C75.7911 49.961 73.313 47.4124 73.313 42.3857Z" fill="black"/>
<path d="M99.5494 49.5385L96.4248 44.3418C96.4034 44.3072 96.3735 44.2788 96.3379 44.2592C96.3023 44.2396 96.2623 44.2295 96.2217 44.2299H95.0904C95.0284 44.2299 94.969 44.2542 94.9248 44.2976C94.8806 44.341 94.8552 44.4 94.8542 44.4619V49.4349C94.8542 49.4657 94.848 49.4962 94.8361 49.5246C94.8242 49.5531 94.8067 49.5788 94.7847 49.6004C94.7627 49.622 94.7367 49.639 94.708 49.6505C94.6794 49.6619 94.6488 49.6675 94.6179 49.6669H90.8261C90.7953 49.6675 90.7647 49.6619 90.736 49.6505C90.7074 49.639 90.6813 49.622 90.6593 49.6004C90.6373 49.5788 90.6199 49.5531 90.6079 49.5246C90.596 49.4962 90.5899 49.4657 90.5899 49.4349V34.1017C90.5893 34.0706 90.5951 34.0396 90.6067 34.0107C90.6184 33.9818 90.6358 33.9555 90.6578 33.9334C90.6799 33.9114 90.7061 33.894 90.735 33.8823C90.764 33.8707 90.7949 33.865 90.8261 33.8655H97.5727C101.787 33.8655 103.743 35.3201 103.764 38.8674V39.0125C103.764 41.4989 102.935 42.9701 101.149 43.6994C101.117 43.7118 101.087 43.7312 101.063 43.7563C101.039 43.7814 101.021 43.8116 101.011 43.8446C101 43.8776 100.997 43.9126 101.001 43.947C101.006 43.9814 101.018 44.0143 101.037 44.0434L104.415 49.323C104.437 49.3586 104.449 49.3995 104.45 49.4414C104.451 49.4833 104.441 49.5247 104.421 49.5614C104.4 49.5981 104.371 49.6288 104.335 49.6502C104.299 49.6717 104.258 49.6832 104.216 49.6835H99.7525C99.7086 49.6802 99.6664 49.665 99.6306 49.6394C99.5948 49.6138 99.5667 49.5789 99.5494 49.5385ZM94.8542 37.7858V40.4588C94.8552 40.5211 94.8804 40.5805 94.9245 40.6246C94.9686 40.6687 95.0281 40.6939 95.0904 40.695H97.5768C98.8656 40.695 99.3878 40.148 99.3878 39.17V39.0249C99.3878 38.0718 98.8656 37.5496 97.5768 37.5496H95.0904C95.0593 37.5496 95.0286 37.5557 95 37.5676C94.9713 37.5795 94.9453 37.5969 94.9233 37.6188C94.9014 37.6407 94.884 37.6668 94.8721 37.6954C94.8603 37.7241 94.8542 37.7548 94.8542 37.7858Z" fill="black"/>
<path d="M118.401 37.7112H110.792C110.73 37.7123 110.671 37.7376 110.628 37.7818C110.585 37.826 110.56 37.8855 110.56 37.9474V39.8371C110.56 39.8986 110.585 39.9577 110.628 40.0012C110.672 40.0447 110.731 40.0692 110.792 40.0692H117.008C117.07 40.0702 117.129 40.0956 117.173 40.1398C117.216 40.184 117.24 40.2434 117.24 40.3054V43.2891C117.241 43.3199 117.235 43.3506 117.224 43.3792C117.213 43.4078 117.196 43.4339 117.174 43.4559C117.152 43.4779 117.127 43.4953 117.098 43.5073C117.07 43.5192 117.039 43.5253 117.008 43.5253H110.792C110.761 43.5253 110.731 43.5315 110.702 43.5434C110.674 43.5553 110.648 43.5728 110.627 43.5948C110.605 43.6167 110.588 43.6428 110.577 43.6715C110.565 43.7001 110.56 43.7307 110.56 43.7615V45.5849C110.56 45.6469 110.585 45.7063 110.628 45.7505C110.671 45.7947 110.73 45.8201 110.792 45.8212H118.401C118.463 45.8212 118.524 45.846 118.568 45.8903C118.612 45.9346 118.637 45.9947 118.637 46.0574V49.4224C118.636 49.4843 118.611 49.5433 118.566 49.5867C118.522 49.6301 118.463 49.6544 118.401 49.6544H106.528C106.466 49.6544 106.407 49.63 106.364 49.5865C106.32 49.5429 106.296 49.4839 106.296 49.4224V34.0892C106.295 34.0584 106.301 34.0278 106.312 33.9992C106.324 33.9705 106.341 33.9444 106.362 33.9225C106.384 33.9005 106.41 33.883 106.438 33.8711C106.467 33.8592 106.497 33.853 106.528 33.853H118.401C118.463 33.853 118.524 33.8779 118.568 33.9222C118.612 33.9665 118.637 34.0266 118.637 34.0892V37.4791C118.636 37.541 118.611 37.6001 118.566 37.6435C118.522 37.6869 118.463 37.7112 118.401 37.7112Z" fill="black"/>
<path d="M131.923 49.4969L131.156 47.3544C131.14 47.3082 131.109 47.2682 131.069 47.24C131.029 47.2118 130.981 47.1967 130.932 47.197H125.131C125.082 47.1973 125.034 47.2126 124.994 47.2407C124.954 47.2689 124.924 47.3085 124.907 47.3544L124.14 49.4969C124.123 49.542 124.092 49.5808 124.052 49.6082C124.012 49.6355 123.965 49.6502 123.916 49.6503H120.253C120.215 49.6507 120.178 49.6419 120.144 49.6246C120.11 49.6073 120.081 49.582 120.06 49.551C120.038 49.5199 120.024 49.484 120.02 49.4464C120.015 49.4088 120.02 49.3707 120.033 49.3353L125.802 33.9815C125.818 33.9363 125.848 33.8974 125.887 33.8699C125.927 33.8424 125.974 33.8279 126.022 33.8281H130.041C130.089 33.829 130.135 33.8441 130.174 33.8714C130.214 33.8987 130.244 33.937 130.261 33.9815L136.038 49.356C136.051 49.3914 136.056 49.4295 136.051 49.4671C136.047 49.5047 136.033 49.5406 136.011 49.5717C135.99 49.6027 135.961 49.628 135.927 49.6453C135.893 49.6626 135.856 49.6714 135.818 49.671H132.155C132.103 49.6705 132.052 49.6534 132.01 49.6221C131.968 49.5908 131.938 49.5469 131.923 49.4969ZM126.477 43.8402H129.573C129.611 43.8407 129.648 43.8319 129.682 43.8146C129.716 43.7973 129.745 43.772 129.766 43.7409C129.788 43.7099 129.802 43.674 129.806 43.6364C129.811 43.5988 129.806 43.5607 129.793 43.5253L128.247 39.232C128.23 39.1866 128.2 39.1475 128.16 39.1198C128.121 39.0921 128.074 39.0773 128.025 39.0773C127.977 39.0773 127.93 39.0921 127.89 39.1198C127.85 39.1475 127.82 39.1866 127.804 39.232L126.258 43.5129C126.242 43.5488 126.235 43.5884 126.238 43.6277C126.241 43.667 126.255 43.7048 126.277 43.7376C126.299 43.7704 126.329 43.797 126.364 43.815C126.399 43.8329 126.438 43.8416 126.477 43.8402Z" fill="black"/>
<path d="M162.079 37.7112H154.491C154.429 37.7122 154.37 37.7375 154.326 37.7815C154.281 37.8256 154.256 37.8851 154.255 37.9474V39.8371C154.256 39.899 154.282 39.958 154.326 40.0014C154.37 40.0448 154.429 40.0692 154.491 40.0692H160.708C160.77 40.0692 160.83 40.094 160.875 40.1383C160.919 40.1826 160.944 40.2427 160.944 40.3054V43.2891C160.944 43.3203 160.939 43.3513 160.927 43.3802C160.915 43.4091 160.898 43.4353 160.876 43.4574C160.854 43.4794 160.828 43.4968 160.799 43.5085C160.77 43.5202 160.739 43.5259 160.708 43.5253H154.491C154.429 43.5253 154.369 43.5502 154.324 43.5945C154.28 43.6388 154.255 43.6989 154.255 43.7615V45.5849C154.256 45.6472 154.281 45.7067 154.326 45.7508C154.37 45.7949 154.429 45.8201 154.491 45.8212H162.1C162.131 45.8211 162.161 45.8273 162.19 45.8392C162.218 45.8511 162.244 45.8686 162.266 45.8906C162.287 45.9126 162.304 45.9386 162.316 45.9673C162.327 45.9959 162.333 46.0265 162.332 46.0574V49.4224C162.332 49.4839 162.308 49.5429 162.264 49.5865C162.221 49.63 162.162 49.6544 162.1 49.6544H150.206C150.144 49.6544 150.085 49.6301 150.041 49.5867C149.997 49.5433 149.971 49.4843 149.97 49.4224V34.0892C149.97 34.0266 149.995 33.9665 150.039 33.9222C150.084 33.8779 150.144 33.853 150.206 33.853H162.079C162.11 33.853 162.141 33.8592 162.169 33.8711C162.197 33.883 162.223 33.9005 162.245 33.9225C162.266 33.9444 162.283 33.9705 162.295 33.9992C162.306 34.0278 162.312 34.0584 162.311 34.0892V37.4791C162.311 37.5407 162.287 37.5997 162.243 37.6432C162.2 37.6867 162.141 37.7112 162.079 37.7112Z" fill="black"/>
<path d="M148.308 34.0561V37.446C148.308 37.5079 148.284 37.5674 148.241 37.6116C148.197 37.6557 148.138 37.6811 148.076 37.6822H143.804C143.773 37.6816 143.742 37.6872 143.714 37.6987C143.685 37.7101 143.659 37.7271 143.637 37.7487C143.615 37.7703 143.598 37.7961 143.586 37.8245C143.574 37.8529 143.568 37.8834 143.568 37.9143V49.4058C143.568 49.4685 143.543 49.5285 143.498 49.5728C143.454 49.6171 143.394 49.642 143.331 49.642H139.54C139.477 49.642 139.417 49.6171 139.373 49.5728C139.328 49.5285 139.303 49.4685 139.303 49.4058V37.9143C139.303 37.8834 139.297 37.8529 139.285 37.8245C139.273 37.7961 139.256 37.7703 139.234 37.7487C139.212 37.7271 139.186 37.7101 139.157 37.6987C139.129 37.6872 139.098 37.6816 139.067 37.6822H134.799C134.736 37.6822 134.676 37.6573 134.632 37.613C134.587 37.5687 134.563 37.5086 134.562 37.446V34.0561C134.562 33.9935 134.587 33.9334 134.632 33.8891C134.676 33.8448 134.736 33.8199 134.799 33.8199H148.06C148.092 33.8182 148.124 33.8231 148.154 33.8342C148.184 33.8453 148.212 33.8624 148.235 33.8845C148.258 33.9066 148.277 33.9333 148.289 33.9628C148.302 33.9923 148.308 34.024 148.308 34.0561Z" fill="black"/>
<path d="M143.568 14.3881V17.778C143.568 17.8088 143.562 17.8394 143.55 17.8678C143.538 17.8962 143.52 17.922 143.498 17.9436C143.476 17.9652 143.45 17.9822 143.422 17.9936C143.393 18.005 143.362 18.0106 143.331 18.0101H139.063C139 18.0101 138.94 18.035 138.896 18.0793C138.852 18.1236 138.827 18.1836 138.827 18.2463V29.7378C138.827 29.8005 138.802 29.8606 138.758 29.9049C138.713 29.9492 138.653 29.9741 138.591 29.9741H134.799C134.736 29.9741 134.676 29.9492 134.632 29.9049C134.587 29.8606 134.563 29.8005 134.563 29.7378V18.2339C134.563 18.1712 134.538 18.1111 134.493 18.0668C134.449 18.0225 134.389 17.9976 134.326 17.9976H130.041C130.011 17.9982 129.98 17.9926 129.951 17.9812C129.923 17.9698 129.897 17.9528 129.875 17.9312C129.853 17.9096 129.835 17.8838 129.823 17.8554C129.811 17.8269 129.805 17.7964 129.805 17.7656V14.3881C129.805 14.3255 129.83 14.2654 129.874 14.2211C129.919 14.1768 129.979 14.1519 130.041 14.1519H143.302C143.336 14.1478 143.37 14.1508 143.402 14.1609C143.434 14.1709 143.463 14.1876 143.489 14.21C143.514 14.2323 143.534 14.2598 143.547 14.2905C143.561 14.3212 143.568 14.3545 143.568 14.3881Z" fill="black"/>
<path d="M58.0381 16.7214L46.4098 22.1999C46.374 22.2165 46.3347 22.2239 46.2953 22.2214C46.256 22.2189 46.2179 22.2066 46.1845 22.1856C46.1511 22.1646 46.1235 22.1355 46.1042 22.1011C46.085 22.0667 46.0746 22.028 46.0741 21.9886V18.2589C46.0747 18.2281 46.0691 18.1975 46.0577 18.1688C46.0463 18.1402 46.0293 18.1141 46.0077 18.0921C45.986 18.0701 45.9603 18.0527 45.9319 18.0407C45.9034 18.0288 45.8729 18.0227 45.8421 18.0227H11.2514C11.2202 18.0221 11.1892 18.0279 11.1603 18.0395C11.1314 18.0512 11.1052 18.0686 11.0831 18.0906C11.0611 18.1127 11.0437 18.1389 11.032 18.1678C11.0203 18.1968 11.0146 18.2277 11.0152 18.2589V45.5684C11.0152 45.5993 11.0213 45.6298 11.0332 45.6582C11.0451 45.6866 11.0626 45.7124 11.0846 45.734C11.1066 45.7556 11.1327 45.7726 11.1613 45.784C11.1899 45.7955 11.2206 45.8011 11.2514 45.8005H45.8421C45.9036 45.8005 45.9626 45.7761 46.0062 45.7325C46.0497 45.689 46.0741 45.63 46.0741 45.5684V41.8388C46.0746 41.7993 46.085 41.7606 46.1042 41.7262C46.1235 41.6918 46.1511 41.6628 46.1845 41.6418C46.2179 41.6208 46.256 41.6084 46.2953 41.6059C46.3347 41.6034 46.374 41.6108 46.4098 41.6274L58.0381 47.1018C58.0742 47.1185 58.1139 47.1259 58.1536 47.1232C58.1933 47.1205 58.2317 47.1078 58.2652 47.0863C58.2987 47.0648 58.3262 47.0352 58.3452 47.0002C58.3642 46.9652 58.374 46.926 58.3738 46.8863V16.9328C58.3744 16.8929 58.3648 16.8536 58.3458 16.8186C58.3268 16.7835 58.2991 16.7539 58.2654 16.7327C58.2317 16.7115 58.193 16.6993 58.1532 16.6973C58.1134 16.6953 58.0738 16.7036 58.0381 16.7214ZM39.7005 39.9946H17.4054C17.3745 39.9946 17.344 39.9885 17.3156 39.9766C17.2871 39.9647 17.2614 39.9472 17.2398 39.9252C17.2182 39.9032 17.2012 39.8771 17.1897 39.8485C17.1783 39.8199 17.1727 39.7893 17.1733 39.7584V24.0358C17.1733 23.9738 17.1976 23.9144 17.241 23.8702C17.2844 23.826 17.3434 23.8006 17.4054 23.7995H39.7005C39.7625 23.8006 39.8215 23.826 39.8649 23.8702C39.9083 23.9144 39.9326 23.9738 39.9326 24.0358V39.7543C39.9337 39.7854 39.9285 39.8165 39.9174 39.8456C39.9062 39.8748 39.8893 39.9013 39.8676 39.9238C39.846 39.9462 39.82 39.964 39.7913 39.9762C39.7626 39.9884 39.7317 39.9947 39.7005 39.9946ZM51.9049 37.2595L46.2275 34.8435C46.1849 34.8257 46.1484 34.7958 46.1227 34.7575C46.0969 34.7192 46.0829 34.6742 46.0824 34.628V29.162C46.0834 29.116 46.0976 29.0712 46.1233 29.033C46.149 28.9948 46.1852 28.9648 46.2275 28.9465L51.9049 26.5346C51.9405 26.5186 51.9796 26.5118 52.0186 26.5149C52.0576 26.518 52.0952 26.5309 52.1278 26.5524C52.1605 26.5739 52.1872 26.6033 52.2054 26.6378C52.2237 26.6724 52.2329 26.711 52.2323 26.7501V37.0399C52.2332 37.08 52.2239 37.1198 52.2052 37.1553C52.1865 37.1908 52.159 37.221 52.1254 37.243C52.0918 37.265 52.0532 37.278 52.0132 37.2809C51.9731 37.2838 51.933 37.2765 51.8966 37.2595H51.9049Z" fill="black"/>
<path d="M169.692 45.8502C169.536 45.8501 169.381 45.8334 169.228 45.8005C168.935 45.7403 168.656 45.6228 168.408 45.4547C168.161 45.2866 167.948 45.0713 167.784 44.821C167.62 44.5708 167.506 44.2905 167.45 43.9964C167.395 43.7022 167.397 43.3999 167.458 43.1068L167.906 40.9643C167.999 40.5191 168.223 40.1118 168.55 39.795C168.876 39.4781 169.29 39.2662 169.738 39.1865C170.761 39 172.224 38.5318 172.605 38.1754C173.314 37.5455 174.383 36.3313 173.55 35.3118C173.182 34.8896 172.669 34.6202 172.113 34.5566C171.556 34.4929 170.996 34.6396 170.542 34.9679C170.192 35.3214 169.883 35.7119 169.618 36.1323C169.284 36.6237 168.772 36.9654 168.19 37.0847C167.608 37.2041 167.003 37.0917 166.503 36.7714C166.003 36.4511 165.647 35.9483 165.512 35.37C165.377 34.7916 165.473 34.1834 165.78 33.6749C166.329 32.7887 167.015 31.9944 167.811 31.3211C169.207 30.2915 170.943 29.8327 172.665 30.0383C174.387 30.2439 175.967 31.0983 177.081 32.4275C178.933 34.6943 179.207 38.4033 175.635 41.5818C174.669 42.4396 173.202 42.9908 172.071 43.314L171.922 44.0351C171.815 44.5477 171.535 45.008 171.129 45.3385C170.723 45.6691 170.216 45.8498 169.692 45.8502Z" fill="#F39200"/>
<path d="M168.726 52.0042C168.18 52.0045 167.652 51.8086 167.238 51.4522C166.824 51.0957 166.552 50.6025 166.471 50.0622C166.39 49.522 166.506 48.9707 166.797 48.5087C167.089 48.0467 167.537 47.7048 168.059 47.5452L168.237 47.4913C168.525 47.3967 168.829 47.3603 169.131 47.3844C169.433 47.4085 169.727 47.4926 169.996 47.6316C170.265 47.7707 170.504 47.962 170.698 48.1944C170.892 48.4268 171.038 48.6955 171.128 48.985C171.217 49.2744 171.247 49.5788 171.218 49.8802C171.188 50.1817 171.098 50.4741 170.954 50.7406C170.81 51.007 170.614 51.2421 170.379 51.432C170.143 51.6219 169.871 51.7629 169.58 51.8467L169.398 51.9006C169.181 51.9693 168.954 52.0043 168.726 52.0042Z" fill="#F39200"/>
<path d="M23.153 43.7202C22.6367 43.7213 22.1352 43.5472 21.7307 43.2261C21.3263 42.9051 21.0429 42.4563 20.9268 41.9531C20.8108 41.45 20.869 40.9223 21.092 40.4566C21.315 39.9909 21.6896 39.6147 22.1543 39.3896L26.7128 37.1684L9.72203 39.7667C9.17857 39.8489 8.62369 39.732 8.15962 39.4375C7.69555 39.1429 7.35356 38.6906 7.19664 38.1638C7.03971 37.637 7.07844 37.0713 7.30567 36.5708C7.53291 36.0703 7.93335 35.6688 8.43322 35.4403L23.9777 28.3622L11.3672 30.3265C10.8276 30.4116 10.2754 30.3 9.81109 30.0121C9.34681 29.7242 9.00137 29.2792 8.83769 28.758C8.674 28.2368 8.70295 27.6742 8.91927 27.1725C9.13559 26.6709 9.52488 26.2636 10.0163 26.0249L26.4766 17.9937L6.09181 19.2659C5.65037 19.2927 5.21065 19.1907 4.82606 18.9724C4.44147 18.754 4.12857 18.4287 3.92536 18.0359C3.72216 17.6431 3.6374 17.1997 3.68138 16.7597C3.72535 16.3196 3.89618 15.9018 4.1731 15.5569L10.3934 7.87381L3.1578 10.8949C2.88161 11.0102 2.5854 11.0701 2.28609 11.071C1.98678 11.0719 1.69021 11.0138 1.41334 10.9001C1.13647 10.7864 0.884704 10.6192 0.672422 10.4082C0.46014 10.1972 0.291498 9.94646 0.176126 9.67027C0.0607534 9.39409 0.000908547 9.09788 1.02651e-05 8.79857C-0.000888017 8.49926 0.0571774 8.20269 0.17089 7.92582C0.284602 7.64895 0.451736 7.39718 0.662747 7.1849C0.873759 6.97262 1.12452 6.80398 1.4007 6.6886L16.9535 0.178245C17.4214 -0.0173476 17.9413 -0.0512594 18.4307 0.0818804C18.9201 0.21502 19.3511 0.507605 19.6555 0.913312C19.9599 1.31902 20.1203 1.81467 20.1113 2.32179C20.1023 2.82892 19.9243 3.31854 19.6057 3.71315L10.9818 14.3925L37.6697 12.7348C38.1973 12.7006 38.7204 12.8509 39.1494 13.1599C39.5784 13.4689 39.8866 13.9175 40.0212 14.4287C40.1559 14.94 40.1086 15.4821 39.8876 15.9624C39.6665 16.4426 39.2853 16.8311 38.8094 17.0613L25.6105 23.497L39.7003 21.3007C40.2443 21.2168 40.8002 21.3326 41.2655 21.6267C41.7307 21.9208 42.0738 22.3733 42.2314 22.9007C42.389 23.428 42.3504 23.9946 42.1229 24.4957C41.8953 24.9968 41.4941 25.3987 40.9933 25.6271L25.2914 32.7756L40.898 30.3928C41.4366 30.3108 41.9869 30.4245 42.4489 30.7133C42.9109 31.0021 43.2542 31.4468 43.4166 31.967C43.5789 32.4871 43.5496 33.0481 43.3339 33.5485C43.1181 34.0488 42.7303 34.4553 42.2407 34.6943L24.1517 43.4881C23.8409 43.6407 23.4993 43.7201 23.153 43.7202Z" fill="#F39200"/>
<path d="M133.506 6.8294C132.996 6.5034 132.379 6.39232 131.788 6.52046C131.197 6.64859 130.681 7.00551 130.352 7.51317L127.186 12.4322C126.678 11.9582 126.14 11.518 125.574 11.1144C125.079 10.7649 124.466 10.6262 123.869 10.7287C123.272 10.8313 122.741 11.1668 122.391 11.6614C122.042 12.156 121.903 12.7692 122.006 13.366C122.108 13.9629 122.444 14.4946 122.938 14.8441C123.562 15.2889 124.14 15.7957 124.662 16.3567L122.802 19.2575C122.638 19.5089 122.526 19.7901 122.472 20.0848C122.417 20.3796 122.421 20.6822 122.483 20.9755C122.546 21.2687 122.665 21.5468 122.835 21.7938C123.005 22.0409 123.221 22.252 123.473 22.4153C123.724 22.5786 124.005 22.6907 124.3 22.7453C124.595 22.8 124.898 22.796 125.191 22.7336C125.484 22.6713 125.762 22.5518 126.009 22.382C126.256 22.2122 126.467 21.9954 126.631 21.744L127.501 20.3971C127.774 20.8861 128.019 21.3461 128.226 21.744C128.542 22.4083 128.918 23.0422 129.349 23.6378C129.534 23.8781 129.765 24.0791 130.029 24.2291C130.292 24.379 130.583 24.4749 130.884 24.5111C131.185 24.5472 131.49 24.523 131.782 24.4398C132.073 24.3565 132.345 24.2159 132.582 24.0263C132.818 23.8366 133.014 23.6017 133.159 23.3352C133.304 23.0687 133.394 22.7761 133.424 22.4744C133.454 22.1727 133.423 21.868 133.334 21.5782C133.245 21.2884 133.099 21.0193 132.905 20.7867C132.793 20.6334 132.49 20.0739 132.263 19.6263C131.654 18.4268 130.982 17.2606 130.248 16.1329L134.185 9.98304C134.512 9.47424 134.623 8.85694 134.496 8.26602C134.369 7.6751 134.013 7.15861 133.506 6.8294Z" fill="#F39200"/>
</g>
<defs>
<clipPath id="clip0_2989_355">
<rect width="178.415" height="52" fill="white"/>
</clipPath>
</defs>
</svg>
