<svg width="24" height="24" viewBox="0 0 24 24" fill="none" xmlns="http://www.w3.org/2000/svg">
<path fill-rule="evenodd" clip-rule="evenodd" d="M20.1672 6.87454C20.3625 6.67927 20.679 6.67927 20.8743 6.87453C22.2339 8.23417 22.9978 10.0782 22.9978 12.0011C22.9978 13.9239 22.2339 15.7679 20.8743 17.1276C20.679 17.3228 20.3625 17.3228 20.1672 17.1276C19.9719 16.9323 19.9719 16.6157 20.1672 16.4205C21.3393 15.2484 21.9978 13.6587 21.9978 12.0011C21.9978 10.3435 21.3393 8.75374 20.1672 7.58164C19.9719 7.38638 19.9719 7.0698 20.1672 6.87454Z" fill="white"/>
<path fill-rule="evenodd" clip-rule="evenodd" d="M7.49945 7.7511C7.77559 7.7511 7.99945 7.97496 7.99945 8.2511V15.7511C7.99945 16.0272 7.77559 16.2511 7.49945 16.2511C7.22331 16.2511 6.99945 16.0272 6.99945 15.7511V8.2511C6.99945 7.97496 7.22331 7.7511 7.49945 7.7511Z" fill="white"/>
<path fill-rule="evenodd" clip-rule="evenodd" d="M17.5155 9.52621C17.7108 9.33095 18.0274 9.33095 18.2226 9.52621C18.879 10.1826 19.2478 11.0728 19.2478 12.0011C19.2478 12.9293 18.879 13.8196 18.2226 14.476C18.0274 14.6712 17.7108 14.6712 17.5155 14.476C17.3203 14.2807 17.3203 13.9641 17.5155 13.7688C17.9844 13.3 18.2478 12.6641 18.2478 12.0011C18.2478 11.338 17.9844 10.7022 17.5155 10.2333C17.3203 10.0381 17.3203 9.72147 17.5155 9.52621Z" fill="white"/>
<path fill-rule="evenodd" clip-rule="evenodd" d="M4.16367 3.38003C4.368 3.19428 4.68422 3.20934 4.86997 3.41367L19.87 19.9137C20.0557 20.118 20.0407 20.4342 19.8363 20.62C19.632 20.8057 19.3158 20.7907 19.13 20.5863L4.13003 4.08634C3.94428 3.88201 3.95934 3.56579 4.16367 3.38003Z" fill="white"/>
<path fill-rule="evenodd" clip-rule="evenodd" d="M8.53431 7.44665C8.70384 7.66463 8.66458 7.97876 8.4466 8.1483L7.80697 8.64579C7.71921 8.71406 7.61119 8.75112 7.5 8.75112H3C2.9337 8.75112 2.87011 8.77746 2.82322 8.82434C2.77634 8.87123 2.75 8.93482 2.75 9.00112V15.0011C2.75 15.0674 2.77634 15.131 2.82322 15.1779C2.87011 15.2248 2.9337 15.2511 3 15.2511H7.5C7.61119 15.2511 7.7192 15.2882 7.80697 15.3564L13.75 19.9788V14.475C13.75 14.1989 13.9739 13.975 14.25 13.975C14.5261 13.975 14.75 14.1989 14.75 14.475V21.0011C14.75 21.1921 14.6412 21.3664 14.4697 21.4503C14.2981 21.5342 14.0938 21.513 13.943 21.3958L7.32845 16.2511H3C2.66848 16.2511 2.35054 16.1194 2.11612 15.885C1.8817 15.6506 1.75 15.3326 1.75 15.0011V9.00112C1.75 8.6696 1.8817 8.35166 2.11612 8.11724C2.35054 7.88282 2.66848 7.75112 3 7.75112H7.32844L7.83266 7.35895C8.05063 7.18941 8.36477 7.22868 8.53431 7.44665Z" fill="white"/>
<path fill-rule="evenodd" clip-rule="evenodd" d="M14.4697 2.55195C14.6412 2.63585 14.75 2.81014 14.75 3.0011V10.0152C14.75 10.2913 14.5261 10.5152 14.25 10.5152C13.9738 10.5152 13.75 10.2913 13.75 10.0152V4.02341L10.8216 6.301C10.6036 6.47053 10.2895 6.43126 10.1199 6.21329C9.9504 5.99531 9.98967 5.68117 10.2076 5.51164L13.943 2.60642C14.0938 2.48918 14.2981 2.46804 14.4697 2.55195Z" fill="white"/>
</svg>
