<svg width="80" height="80" viewBox="0 0 80 80" fill="none" xmlns="http://www.w3.org/2000/svg">
    <path d="M39.9997 35.0004C39.9998 33.8516 40.3954 32.7378 41.1201 31.8464C41.8447 30.955 42.8542 30.3402 43.9788 30.1055C45.1033 29.8708 46.2744 30.0304 47.2951 30.5575C48.3159 31.0846 49.124 31.9471 49.5836 33L53.9997 33L49.9669 37.0328C49.7043 41.089 47.9078 44.8933 44.9423 47.6731C41.9767 50.4529 38.0644 51.9999 33.9997 52C29.9997 52 28.9997 50.5 28.9997 50.5C28.9997 50.5 32.9997 49 34.9997 46C34.9997 46 26.9997 42 28.9997 31C28.9997 31 33.9997 36 39.998 37L39.9997 35.0004Z"
          stroke="CurrentColor" stroke-linecap="round" stroke-linejoin="round"/>
    <circle cx="40" cy="40" r="39.5" stroke="CurrentColor"/>
</svg>
