<svg width="64" height="64" viewBox="0 0 64 64" fill="none" xmlns="http://www.w3.org/2000/svg">
<circle opacity="0.2" cx="32" cy="32" r="31.5" stroke="white"/>
<path d="M32.5 36.4062C34.6574 36.4062 36.4062 34.6574 36.4062 32.5C36.4062 30.3426 34.6574 28.5938 32.5 28.5938C30.3426 28.5938 28.5938 30.3426 28.5938 32.5C28.5938 34.6574 30.3426 36.4062 32.5 36.4062Z" stroke="white" stroke-linecap="round" stroke-linejoin="round"/>
<path d="M36.7969 23.5156H28.2031C25.6143 23.5156 23.5156 25.6143 23.5156 28.2031V36.7969C23.5156 39.3857 25.6143 41.4844 28.2031 41.4844H36.7969C39.3857 41.4844 41.4844 39.3857 41.4844 36.7969V28.2031C41.4844 25.6143 39.3857 23.5156 36.7969 23.5156Z" stroke="white" stroke-linecap="round" stroke-linejoin="round"/>
<path d="M37.5781 28.3984C38.1175 28.3984 38.5547 27.9612 38.5547 27.4219C38.5547 26.8825 38.1175 26.4453 37.5781 26.4453C37.0388 26.4453 36.6016 26.8825 36.6016 27.4219C36.6016 27.9612 37.0388 28.3984 37.5781 28.3984Z" fill="white"/>
</svg>
