<svg width="64" height="64" viewBox="0 0 64 64" fill="none" xmlns="http://www.w3.org/2000/svg">
<circle opacity="0.2" cx="32" cy="32" r="31.5" stroke="white"/>
<path d="M35.625 32.5L30.9375 29.375V35.625L35.625 32.5Z" stroke="white" stroke-linecap="round" stroke-linejoin="round"/>
<path d="M22.3438 32.5001C22.3438 35.4059 22.644 37.1108 22.8722 37.9871C22.9332 38.2264 23.0503 38.4477 23.2139 38.6327C23.3775 38.8178 23.5828 38.9611 23.8129 39.051C27.0821 40.3073 32.5 40.2728 32.5 40.2728C32.5 40.2728 37.9178 40.3073 41.1871 39.051C41.4171 38.9611 41.6225 38.8178 41.7861 38.6328C41.9496 38.4477 42.0668 38.2264 42.1278 37.9871C42.356 37.1108 42.6562 35.4059 42.6562 32.5001C42.6562 29.5943 42.356 27.8894 42.1278 27.0131C42.0668 26.7738 41.9497 26.5525 41.7861 26.3675C41.6225 26.1824 41.4172 26.0391 41.1871 25.9492C37.9179 24.6929 32.5 24.7274 32.5 24.7274C32.5 24.7274 27.0822 24.6929 23.8129 25.9492C23.5829 26.0391 23.3775 26.1824 23.2139 26.3674C23.0504 26.5525 22.9332 26.7738 22.8722 27.0131C22.644 27.8894 22.3438 29.5943 22.3438 32.5001Z" stroke="white" stroke-linecap="round" stroke-linejoin="round"/>
</svg>
