<svg width="25" height="25" viewBox="0 0 25 25" fill="none" xmlns="http://www.w3.org/2000/svg">
<path d="M15.625 12.5L10.9375 9.375V15.625L15.625 12.5Z" stroke="white" stroke-linecap="round" stroke-linejoin="round"/>
<path d="M2.34375 12.5001C2.34375 15.4059 2.64396 17.1108 2.87218 17.9871C2.93318 18.2264 3.05033 18.4477 3.21392 18.6327C3.37751 18.8178 3.58284 18.9611 3.81288 19.051C7.08211 20.3073 12.5 20.2728 12.5 20.2728C12.5 20.2728 17.9178 20.3073 21.1871 19.051C21.4171 18.9611 21.6225 18.8178 21.7861 18.6328C21.9496 18.4477 22.0668 18.2264 22.1278 17.9871C22.356 17.1108 22.6562 15.4059 22.6562 12.5001C22.6562 9.59428 22.356 7.88937 22.1278 7.01312C22.0668 6.7738 21.9497 6.55247 21.7861 6.36745C21.6225 6.18244 21.4172 6.03906 21.1871 5.94921C17.9179 4.69289 12.5 4.72739 12.5 4.72739C12.5 4.72739 7.08217 4.69289 3.81291 5.9492C3.58287 6.03905 3.37754 6.18242 3.21395 6.36744C3.05036 6.55245 2.9332 6.77379 2.8722 7.0131C2.64397 7.88935 2.34375 9.59428 2.34375 12.5001Z" stroke="white" stroke-linecap="round" stroke-linejoin="round"/>
</svg>
