<svg width="17" height="14" viewBox="0 0 17 14" fill="none" xmlns="http://www.w3.org/2000/svg">
<path d="M16.2559 0V2.52133C14.9289 2.74249 14 3.20695 13.4692 3.91469C12.9384 4.62243 12.673 5.8831 12.673 7.69668H16.0569V14H9.55451V8.69194C9.55451 5.94945 10.0632 3.82622 11.0806 2.32227C12.0979 0.774091 13.8231 0 16.2559 0ZM6.70142 0V2.52133C5.37441 2.74249 4.4455 3.20695 3.91469 3.91469C3.38389 4.62243 3.11848 5.8831 3.11848 7.69668H6.50237V14H0V8.69194C0 5.94945 0.508689 3.82622 1.52607 2.32227C2.54344 0.774091 4.26856 0 6.70142 0Z" fill="#F7941D"/>
</svg>
